# xmcd CD database file
#
# Track frame offsets:
#	210
#	15047
#	30846
#	52782
#	75901
#	91123
#	121975
#	133917
#	146170
#	167840
#	203603
#	215229
#
# Disc length: 3148 seconds
#
# Revision: 0
# Processed by: cddbd v1.5.2PL0 Copyright (c) Steve Scherf et al.
# Submitted via: CDex 1.51
#
DISCID=8f0c4a0c
DTITLE=Hary Wetterstein - Wetterstein 99 Live
DYEAR=1999
DGENRE=Blues
TTITLE0=In die neue Zeit
TTITLE1=Meine Gedanken
TTITLE2=Aus der Dunkelheit
TTITLE3=Gschichtln
TTITLE4=I moch, wos i wü
TTITLE5=Song for you
TTITLE6=Guada Tog
TTITLE7=Evening sun
TTITLE8=Krieg
TTITLE9=Long nights
TTITLE10=Hundsbluas
TTITLE11=I mog di
EXTD=YEAR: 1999
EXTT0=
EXTT1=
EXTT2=
EXTT3=
EXTT4=
EXTT5=
EXTT6=
EXTT7=
EXTT8=
EXTT9=
EXTT10=
EXTT11=
PLAYORDER=
